<?xml version="1.0" standalone="no"?>
<!DOCTYPE svg PUBLIC "-//W3C//DTD SVG 20010904//EN"
 "http://www.w3.org/TR/2001/REC-SVG-20010904/DTD/svg10.dtd">
<svg version="1.0" xmlns="http://www.w3.org/2000/svg"
 width="258.000000pt" height="258.000000pt" viewBox="0 0 258.000000 258.000000"
 preserveAspectRatio="xMidYMid meet">
<metadata>
Created by potrace 1.14, written by Peter Selinger 2001-2017
</metadata>
<g transform="translate(0.000000,258.000000) scale(0.100000,-0.100000)"
fill="#000000" stroke="none">
<path d="M124 2550 c-26 -13 -49 -35 -65 -63 l-24 -42 -3 -1105 c-2 -608 0
-1129 3 -1159 8 -68 58 -127 120 -141 53 -13 2217 -13 2270 0 62 14 112 73
120 141 3 30 5 551 3 1159 l-3 1105 -24 42 c-16 29 -39 50 -66 63 -41 20 -62
20 -1166 20 -1107 0 -1125 0 -1165 -20z m955 -120 c157 -126 309 -253 362
-302 14 -13 32 -22 40 -20 8 2 -11 -11 -41 -29 -30 -17 -73 -47 -94 -66 -22
-18 -44 -33 -50 -33 -6 0 2 12 18 26 27 23 28 27 13 36 -26 14 -157 151 -157
164 0 12 -122 123 -183 166 -23 17 -62 49 -87 73 -25 23 -67 58 -94 79 l-49
36 80 0 80 0 162 -130z m470 -357 c0 -5 -13 -18 -29 -31 l-30 -23 18 30 c15
28 43 43 41 24z m291 -33 c-6 -11 -14 -20 -18 -20 -5 0 -16 -15 -25 -34 -9
-19 -26 -40 -38 -47 l-23 -12 23 34 c12 19 30 46 39 61 9 15 24 29 32 32 8 2
16 4 18 5 1 0 -2 -8 -8 -19z m-360 -10 c-22 -41 -107 -120 -138 -129 -17 -5
-32 -6 -32 -2 0 13 92 104 130 128 43 28 54 29 40 3z m234 -15 c-9 -14 -19
-24 -21 -21 -6 6 20 46 30 46 4 0 0 -11 -9 -25z m-102 -39 l36 -34 -20 -32
c-11 -18 -26 -39 -34 -47 -8 -8 -14 -19 -14 -24 0 -16 22 -53 38 -65 10 -7 11
-13 4 -18 -6 -3 -17 2 -24 11 -7 10 -19 19 -27 21 -17 4 -111 92 -111 105 0
14 91 117 104 117 7 0 28 -15 48 -34z m-379 -51 c-10 -13 -24 -27 -32 -30 -15
-6 12 31 34 47 17 13 17 9 -2 -17z m50 -87 c9 -11 17 -26 17 -33 0 -12 -29
-25 -57 -25 -13 0 -45 59 -38 70 3 5 -1 11 -7 14 -7 3 5 4 27 1 23 -4 48 -15
58 -27z m445 13 c12 -11 22 -25 22 -31 0 -17 -42 -49 -64 -50 -15 0 -16 3 -6
15 7 8 16 13 20 10 4 -3 13 2 20 10 17 21 -3 20 -35 -1 -22 -14 -25 -14 -25
-1 0 8 -7 17 -15 21 -8 3 -15 15 -15 26 0 17 6 20 38 20 21 -1 47 -9 60 -19z
m-106 -21 c3 -16 1 -30 -4 -30 -4 0 -8 14 -8 30 0 17 2 30 4 30 2 0 6 -13 8
-30z m221 -81 c40 -48 116 -128 342 -359 116 -118 241 -251 278 -294 l67 -79
-1 -311 c0 -245 -3 -307 -12 -291 -7 11 -27 35 -45 54 -18 19 -39 46 -47 62
-8 15 -20 33 -27 41 -48 50 -112 135 -157 208 -29 47 -86 128 -126 180 -75 95
-94 130 -53 94 30 -26 15 -3 -45 74 -54 69 -58 90 -9 42 47 -44 39 -18 -14 48
-69 87 -144 207 -144 231 0 35 -46 115 -86 151 l-38 33 17 29 c9 16 17 40 17
52 0 26 26 66 44 66 7 0 25 -14 39 -31z m-113 11 c0 -5 -5 -10 -11 -10 -5 0
-7 5 -4 10 3 6 8 10 11 10 2 0 4 -4 4 -10z m-500 -89 c0 -6 -5 -13 -10 -16 -6
-4 -8 -11 -5 -16 4 -5 -1 -9 -9 -9 -9 0 -16 5 -16 10 0 6 -9 10 -21 10 -11 0
-17 -5 -14 -10 4 -6 11 -7 17 -4 7 5 9 1 5 -9 -4 -10 -2 -16 5 -14 6 1 13 -4
15 -11 3 -8 -1 -10 -11 -6 -9 3 -16 1 -16 -5 0 -14 47 -15 55 -1 3 5 15 15 27
21 41 22 7 -11 -48 -46 -38 -25 -67 -35 -97 -36 l-42 -2 35 -6 c19 -4 43 -3
53 2 10 5 21 6 24 4 12 -12 -84 -50 -123 -48 -42 1 -76 -20 -54 -34 5 -3 10
-2 10 4 0 15 54 6 58 -10 3 -11 1 -11 -5 -2 -7 10 -18 8 -47 -8 -23 -12 -48
-18 -62 -15 -12 3 -26 2 -29 -4 -3 -5 -13 -10 -21 -10 -8 0 -31 -16 -50 -36
-20 -20 -42 -33 -50 -30 -8 3 -14 -1 -14 -9 0 -8 -13 -22 -29 -31 -17 -10 -28
-21 -26 -25 3 -4 -2 -12 -10 -19 -12 -10 -15 -9 -15 6 0 24 11 38 30 42 31 7
55 42 29 42 -5 0 -8 -4 -4 -9 3 -5 1 -12 -4 -15 -5 -4 -12 -2 -15 2 -8 14 74
87 138 123 32 18 86 43 120 55 34 13 54 23 45 23 -25 1 -119 -34 -171 -63 -34
-19 -46 -22 -42 -11 4 8 12 15 19 15 7 0 15 9 18 20 3 11 14 20 24 20 11 0 30
10 42 21 18 17 25 19 31 9 10 -16 33 -2 26 16 -3 8 6 25 20 39 19 19 21 25 9
25 -9 0 -37 -21 -62 -47 -26 -27 -44 -40 -40 -31 5 15 4 15 -24 0 -16 -9 -29
-20 -29 -24 0 -5 -5 -8 -11 -8 -8 0 -8 4 0 14 7 8 8 17 3 20 -11 6 -72 -22
-72 -33 0 -4 -15 -13 -34 -19 -19 -7 -37 -20 -40 -28 -3 -8 -10 -12 -16 -9 -5
3 -10 1 -10 -5 0 -6 -5 -8 -10 -5 -6 4 -9 1 -8 -7 2 -7 -2 -12 -9 -11 -6 2
-23 -11 -37 -28 -14 -17 -26 -25 -26 -19 0 17 -46 4 -83 -22 -20 -14 -25 -23
-17 -28 9 -6 9 -9 0 -15 -6 -4 -14 -4 -17 -1 -3 3 -13 0 -22 -6 -9 -7 4 9 29
36 96 101 345 244 515 295 172 52 225 61 225 42z m214 -148 c28 -5 29 -6 11
-19 -18 -13 -18 -14 4 -14 32 0 61 -18 61 -37 0 -9 3 -13 6 -10 4 3 16 1 27
-4 14 -8 16 -13 8 -19 -8 -4 -1 -9 18 -13 24 -5 29 -10 24 -24 -5 -15 -3 -15
11 2 14 16 17 17 12 3 -4 -14 -1 -16 17 -9 25 10 53 -11 41 -32 -4 -6 4 0 19
16 14 15 31 27 37 27 5 0 10 7 10 15 0 8 5 15 10 15 6 0 10 -9 10 -20 0 -11 4
-20 9 -20 5 0 11 -16 13 -35 2 -19 0 -35 -4 -35 -5 0 -16 -17 -25 -37 -16 -35
-39 -61 -89 -103 -16 -13 -17 -13 -11 3 5 14 2 16 -20 11 -16 -4 -24 -3 -20 3
16 25 -49 1 -77 -28 -17 -18 -22 -26 -12 -18 17 12 19 12 14 -1 -2 -8 -18 -15
-36 -16 -32 -2 -43 10 -19 19 9 4 9 6 -1 6 -8 1 -16 -8 -19 -19 -3 -11 -10
-20 -15 -20 -5 0 -6 -5 -3 -10 4 -7 -2 -9 -18 -5 -14 4 -28 2 -31 -4 -4 -5
-14 -7 -22 -4 -14 5 -15 3 -4 -17 13 -25 9 -31 -46 -67 -16 -11 -17 -12 -1 -7
13 5 16 2 11 -10 -3 -9 -12 -16 -20 -16 -8 0 -14 -5 -14 -12 0 -9 -3 -9 -12 0
-13 13 -38 -2 -38 -23 0 -16 -36 -40 -72 -49 -18 -4 -28 -2 -28 5 0 7 -9 9
-24 5 -17 -4 -26 -1 -30 11 -4 10 -10 13 -14 8 -18 -26 -102 -46 -102 -25 0 6
-19 10 -42 10 -68 0 -76 15 -16 28 64 15 78 27 78 63 0 28 -2 29 -46 29 -25 0
-54 -5 -65 -10 -11 -6 -19 -7 -19 -2 0 6 9 12 21 15 13 4 18 10 14 17 -5 8 -1
10 12 6 13 -4 27 2 44 20 l24 26 -30 -6 c-16 -3 -8 2 19 10 47 15 50 15 63 -2
12 -16 13 -15 13 14 0 21 5 32 14 32 18 0 48 29 41 40 -7 11 64 52 76 45 5 -4
9 -1 9 4 0 6 15 21 34 33 19 12 39 30 45 40 6 10 -11 3 -39 -18 l-50 -36 0 34
c0 33 -11 61 -24 59 -20 -3 -26 1 -26 14 0 8 -5 15 -11 15 -6 0 -9 -6 -6 -14
3 -8 -5 -18 -19 -25 -39 -17 -49 -13 -27 12 29 32 35 45 40 86 7 50 18 61 58
54 22 -3 43 1 63 13 29 17 31 17 59 -1 l28 -18 -25 28 c-14 16 -19 25 -13 21
7 -4 21 -2 30 3 17 10 55 8 127 -6z m366 -93 c0 -5 -4 -10 -10 -10 -5 0 -10 5
-10 10 0 6 5 10 10 10 6 0 10 -4 10 -10z m-1000 -15 c-7 -8 -17 -15 -23 -15
-6 0 -2 7 9 15 25 19 30 19 14 0z m-50 -5 c-8 -5 -19 -10 -25 -10 -5 0 -3 5 5
10 8 5 20 10 25 10 6 0 3 -5 -5 -10z m-102 -36 c-11 -11 -18 -12 -22 -5 -4 6
0 14 8 17 9 3 13 11 9 18 -3 6 0 6 8 -2 11 -10 11 -15 -3 -28z m47 5 c-10 -15
-25 -10 -19 6 4 8 10 12 15 9 5 -3 7 -10 4 -15z m48 -14 c-3 -9 -8 -14 -10
-11 -3 3 -2 9 2 15 9 16 15 13 8 -4z m-28 -35 c-3 -5 -10 -10 -16 -10 -5 0 -9
5 -9 10 0 6 7 10 16 10 8 0 12 -4 9 -10z m-49 -35 c-11 -8 -17 -18 -13 -21 4
-4 13 -2 20 4 28 23 11 -30 -17 -54 -22 -19 -25 -27 -17 -43 9 -17 7 -19 -22
-17 -22 1 -32 -3 -32 -14 0 -18 -37 -31 -47 -16 -4 6 -16 3 -33 -8 l-26 -17
17 26 c10 15 33 38 53 52 29 20 31 23 11 17 -14 -4 -34 -8 -45 -8 -11 -1 -27
-7 -37 -15 -30 -25 -89 -41 -111 -29 -15 7 -22 7 -28 -3 -5 -8 -9 -9 -9 -3 0
6 9 23 20 37 11 14 20 29 20 34 1 11 47 63 56 63 4 0 -4 -12 -18 -27 -32 -35
-34 -67 -4 -58 12 3 28 7 35 9 15 3 25 17 35 49 3 9 10 17 16 17 6 0 9 -4 6
-9 -3 -5 4 -11 16 -14 15 -4 33 2 56 19 18 14 44 27 58 29 14 1 28 5 31 9 3 3
11 6 17 6 6 0 2 -7 -8 -15z m-121 -25 c-3 -5 -14 -10 -23 -10 -15 0 -15 2 -2
10 20 13 33 13 25 0z m623 -25 c-3 -3 -9 2 -12 12 -6 14 -5 15 5 6 7 -7 10
-15 7 -18z m601 -42 c-96 -159 -223 -270 -426 -371 -77 -39 -193 -85 -199 -79
-2 2 58 33 134 70 75 36 146 74 157 84 11 10 38 31 60 48 62 45 224 205 257
253 36 52 50 48 17 -5z m-619 33 c0 -2 -7 -6 -15 -10 -8 -3 -15 -1 -15 4 0 6
7 10 15 10 8 0 15 -2 15 -4z m-475 -63 c-13 -15 -30 1 -19 19 5 7 9 16 10 21
4 20 7 20 13 -3 4 -14 2 -30 -4 -37z m150 17 c-3 -5 -13 -10 -21 -10 -8 0 -12
5 -9 10 3 6 13 10 21 10 8 0 12 -4 9 -10z m765 -9 c0 -5 -7 -12 -16 -15 -14
-5 -15 -4 -4 9 14 17 20 19 20 6z m-1110 -34 c0 -2 -11 -18 -25 -37 -14 -19
-25 -29 -25 -22 0 19 -28 14 -33 -5 -3 -12 -5 -9 -6 8 -1 24 15 49 31 49 4 0
8 -7 8 -15 0 -12 4 -11 20 5 18 18 30 25 30 17z m-130 -53 c0 -8 -5 -12 -10
-9 -6 4 -8 11 -5 16 9 14 15 11 15 -7z m-36 -9 c-4 -8 -8 -15 -10 -15 -2 0 -4
7 -4 15 0 8 4 15 10 15 5 0 7 -7 4 -15z m1196 -5 c-8 -5 -19 -10 -25 -10 -5 0
-3 5 5 10 8 5 20 10 25 10 6 0 3 -5 -5 -10z m-530 -95 c0 -17 -38 -35 -75 -35
-33 0 -22 37 14 43 52 8 61 7 61 -8z m-116 -10 c-4 -8 -11 -15 -16 -15 -6 0
-5 6 2 15 7 8 14 15 16 15 2 0 1 -7 -2 -15z m486 -40 c0 -7 -79 -46 -101 -50
-11 -2 -19 0 -19 6 0 5 7 9 15 9 8 0 29 9 47 20 31 19 58 26 58 15z m-487 -42
c-7 -2 -19 -2 -25 0 -7 3 -2 5 12 5 14 0 19 -2 13 -5z m-393 -57 c0 -2 -8 -10
-17 -17 -16 -13 -17 -12 -4 4 13 16 21 21 21 13z m655 -35 c3 -5 1 -12 -4 -15
-5 -3 -11 1 -15 9 -6 16 9 21 19 6z m-598 -77 c-5 -5 -57 13 -57 20 0 3 14 0
31 -6 16 -6 28 -12 26 -14z m530 20 c-3 -3 -12 -4 -19 -1 -8 3 -5 6 6 6 11 1
17 -2 13 -5z"/>
<path d="M1248 1812 c-10 -2 -18 -8 -18 -13 0 -11 30 -12 48 0 11 7 11 9 0 13
-7 2 -21 3 -30 0z"/>
<path d="M1068 1613 c7 -3 16 -2 19 1 4 3 -2 6 -13 5 -11 0 -14 -3 -6 -6z"/>
<path d="M965 1430 c-3 -5 1 -10 9 -10 9 0 16 5 16 10 0 6 -4 10 -9 10 -6 0
-13 -4 -16 -10z"/>
<path d="M806 1371 c-12 -5 -15 -10 -9 -14 6 -4 16 0 23 8 14 17 13 17 -14 6z"/>
<path d="M1156 1381 c-3 -5 1 -11 9 -15 8 -3 15 -1 15 4 0 13 -18 22 -24 11z"/>
<path d="M1336 1301 c-13 -15 -14 -20 -4 -24 18 -6 52 19 43 32 -9 16 -20 14
-39 -8z"/>
<path d="M1130 1150 c-8 -5 -11 -10 -6 -10 6 0 2 -6 -6 -12 -16 -12 -16 -14 0
-28 14 -13 15 -12 10 2 -5 11 0 18 15 23 14 4 17 8 9 12 -6 2 -10 9 -6 14 7
11 3 11 -16 -1z"/>
<path d="M1027 1023 c-4 -3 -7 -21 -7 -40 0 -23 5 -33 15 -33 11 0 15 11 15
40 0 38 -8 49 -23 33z"/>
</g>
</svg>
